<svg width="11" height="10" viewBox="0 0 11 10" fill="none" xmlns="http://www.w3.org/2000/svg">
<path d="M10.0246 0.770791C10.0237 0.572283 9.94442 0.382166 9.80405 0.241798C9.66369 0.101431 9.47357 0.0221695 9.27506 0.0212578L2.20399 0.0212574C2.10334 0.0177046 2.003 0.0344615 1.90896 0.0705294C1.81492 0.106597 1.72911 0.161237 1.65664 0.231189C1.58418 0.30114 1.52655 0.38497 1.48719 0.477677C1.44782 0.570385 1.42754 0.670072 1.42754 0.770791C1.42754 0.871509 1.44782 0.971196 1.48719 1.06391C1.52655 1.15661 1.58418 1.24044 1.65664 1.31039C1.72911 1.38035 1.81492 1.43499 1.90896 1.47105C2.003 1.50712 2.10334 1.52388 2.20399 1.52032L7.46487 1.52032L0.259451 8.72574C0.118798 8.86639 0.0397811 9.05716 0.0397807 9.25607C0.0397804 9.45499 0.118799 9.64575 0.259451 9.7864C0.400103 9.92705 0.590868 10.0061 0.78978 10.0061C0.988693 10.0061 1.17946 9.92705 1.32011 9.7864L8.52553 2.58098V7.84186C8.53238 8.03607 8.61435 8.22004 8.75417 8.355C8.89399 8.48997 9.08073 8.5654 9.27506 8.5654C9.46939 8.5654 9.65614 8.48997 9.79595 8.355C9.93577 8.22004 10.0177 8.03607 10.0246 7.84186L10.0246 0.770791Z" fill="#A0A0A0"/>
</svg>
