<svg width="22" height="22" viewBox="0 0 22 22" fill="none" xmlns="http://www.w3.org/2000/svg">
<path d="M18.9063 8.36317H3.09394C2.77394 8.36352 2.45816 8.4362 2.1702 8.57578C1.88224 8.71535 1.62955 8.9182 1.43102 9.16917C1.23332 9.41943 1.09517 9.71142 1.02703 10.023C0.958899 10.3346 0.962571 10.6576 1.03777 10.9675L2.73319 17.9095C2.97866 18.8039 3.51163 19.5927 4.24985 20.1542C4.98869 20.7164 5.89327 21.0208 6.82386 21.0208H15.1742C16.1048 21.0208 17.0094 20.7164 17.7482 20.1542C18.4864 19.5927 19.0194 18.8039 19.2649 17.9095L20.9603 10.9686C21.0744 10.5006 21.0243 10.0077 20.8184 9.57227C20.6126 9.13683 20.2633 8.78532 19.8293 8.57658C19.5405 8.43792 19.2245 8.36503 18.9041 8.36317M6.76102 12.5817V16.8013M11.0001 12.5817V16.8013M15.2392 12.5817V16.8013M18.4188 8.36317C18.4184 7.39255 18.2262 6.43158 17.8533 5.53547C17.4803 4.63936 16.934 3.82579 16.2456 3.1415C14.8519 1.75537 12.9658 0.977869 11.0001 0.979167C9.03445 0.977869 7.14833 1.75537 5.7546 3.1415C5.06643 3.82587 4.52028 4.63949 4.14752 5.53559C3.77476 6.4317 3.58275 7.39263 3.58252 8.36317" stroke="#656565" stroke-width="1.7" stroke-linecap="round" stroke-linejoin="round"/>
</svg>
