<svg width="18" height="18" viewBox="0 0 18 18" fill="none" xmlns="http://www.w3.org/2000/svg">
<path d="M11.75 7.16667L9 9V4.41667M0.75 9C0.75 10.0834 0.963392 11.1562 1.37799 12.1571C1.7926 13.1581 2.40029 14.0675 3.16637 14.8336C3.93245 15.5997 4.84193 16.2074 5.84286 16.622C6.8438 17.0366 7.91659 17.25 9 17.25C10.0834 17.25 11.1562 17.0366 12.1571 16.622C13.1581 16.2074 14.0675 15.5997 14.8336 14.8336C15.5997 14.0675 16.2074 13.1581 16.622 12.1571C17.0366 11.1562 17.25 10.0834 17.25 9C17.25 7.91659 17.0366 6.8438 16.622 5.84286C16.2074 4.84193 15.5997 3.93245 14.8336 3.16637C14.0675 2.40029 13.1581 1.7926 12.1571 1.37799C11.1562 0.963393 10.0834 0.75 9 0.75C7.91659 0.75 6.8438 0.963393 5.84286 1.37799C4.84193 1.7926 3.93245 2.40029 3.16637 3.16637C2.40029 3.93245 1.7926 4.84193 1.37799 5.84286C0.963392 6.8438 0.75 7.91659 0.75 9Z" stroke="#B61255" stroke-width="1.5" stroke-linecap="round" stroke-linejoin="round"/>
</svg>
