<svg width="32" height="26" viewBox="0 0 32 26" fill="none" xmlns="http://www.w3.org/2000/svg">
<path d="M23.0833 24.3332C24.6481 24.3332 25.9167 23.0646 25.9167 21.4998C25.9167 19.935 24.6481 18.6665 23.0833 18.6665C21.5185 18.6665 20.25 19.935 20.25 21.4998C20.25 23.0646 21.5185 24.3332 23.0833 24.3332Z" stroke="#B61255" stroke-width="2" stroke-linecap="round" stroke-linejoin="round"/>
<path d="M8.91665 24.3332C10.4815 24.3332 11.75 23.0646 11.75 21.4998C11.75 19.935 10.4815 18.6665 8.91665 18.6665C7.35184 18.6665 6.08331 19.935 6.08331 21.4998C6.08331 23.0646 7.35184 24.3332 8.91665 24.3332Z" stroke="#B61255" stroke-width="2" stroke-linecap="round" stroke-linejoin="round"/>
<path d="M14.5833 20.0832H20.25M18.125 5.9165H19.4609C21.3167 5.9165 22.2461 5.9165 23.0323 6.36275C23.82 6.80759 24.3441 7.63067 25.3939 9.27542C26.1306 10.4286 26.9012 11.2673 27.9878 12.011C29.0815 12.7618 29.6028 13.1288 29.8904 13.7167C30.1666 14.2805 30.1666 14.9478 30.1666 16.2823C30.1666 18.0432 30.1666 18.9229 29.6722 19.4825L29.6071 19.5519C29.0871 20.0832 28.2669 20.0832 26.6292 20.0832H25.9166" stroke="#B61255" stroke-width="2" stroke-linecap="round" stroke-linejoin="round"/>
<path d="M17.4166 5.9165L18.8248 9.43834C19.5147 11.1624 19.859 12.0252 20.5801 12.5125C21.2997 12.9998 22.2276 12.9998 24.0863 12.9998H28.75M17.4166 5.9165C17.4166 3.91192 17.4166 2.91034 16.8216 2.28984C16.2266 1.6665 15.2676 1.6665 13.3508 1.6665H5.89915C3.9824 1.6665 3.02331 1.66792 2.42831 2.28984C1.83331 2.91175 1.83331 3.91334 1.83331 5.9165V15.8332C1.83331 17.8378 1.83331 18.8393 2.42831 19.4598C3.02331 20.0832 3.9824 20.0832 5.89915 20.0832M17.4166 5.9165V20.0832H11.3193" stroke="#B61255" stroke-width="2" stroke-linecap="round" stroke-linejoin="round"/>
</svg>
