<svg width="22" height="22" viewBox="0 0 22 22" fill="none" xmlns="http://www.w3.org/2000/svg">
<path fill-rule="evenodd" clip-rule="evenodd" d="M13.5939 1.89697C12.8702 1.28018 11.9503 0.941406 10.9994 0.941406C10.0485 0.941406 9.12867 1.28018 8.40491 1.89697L8.02891 2.21697C7.70869 2.49013 7.31046 2.65531 6.89091 2.68897L6.39791 2.72897C5.44988 2.80442 4.55975 3.21517 3.88718 3.88756C3.21461 4.55994 2.80361 5.44996 2.72791 6.39797L2.68891 6.89097C2.65553 7.31041 2.49071 7.70863 2.21791 8.02897L1.89691 8.40497C1.27985 9.1288 0.940918 10.0488 0.940918 11C0.940918 11.9511 1.27985 12.8711 1.89691 13.595L2.21691 13.971C2.49007 14.2912 2.65524 14.6894 2.68891 15.109L2.72891 15.602C2.80435 16.55 3.21511 17.4401 3.88749 18.1127C4.55988 18.7853 5.4499 19.1963 6.39791 19.272L6.89091 19.311C7.31035 19.3444 7.70857 19.5092 8.02891 19.782L8.40491 20.102C9.12874 20.719 10.0488 21.058 10.9999 21.058C11.9511 21.058 12.8711 20.719 13.5949 20.102L13.9709 19.782C14.2913 19.5092 14.6895 19.3444 15.1089 19.311L15.6019 19.271C16.5499 19.1955 17.4401 18.7848 18.1126 18.1124C18.7852 17.44 19.1962 16.55 19.2719 15.602L19.3099 15.109C19.3436 14.6894 19.5088 14.2912 19.7819 13.971L20.1019 13.594C20.7187 12.8702 21.0575 11.9504 21.0575 10.9995C21.0575 10.0485 20.7187 9.12873 20.1019 8.40497L19.7819 8.02897C19.5088 7.70876 19.3436 7.31052 19.3099 6.89097L19.2709 6.39797C19.1955 5.44994 18.7847 4.55981 18.1123 3.88724C17.4399 3.21467 16.5499 2.80367 15.6019 2.72797L15.1089 2.68897C14.6895 2.65559 14.2913 2.49077 13.9709 2.21797L13.5939 1.89697ZM9.70291 3.41997C10.0648 3.11171 10.5246 2.9424 10.9999 2.9424C11.4753 2.9424 11.9351 3.11171 12.2969 3.41997L12.6739 3.74097C13.3145 4.28693 14.1109 4.61692 14.9499 4.68397L15.4429 4.72397C15.9167 4.76191 16.3614 4.96731 16.6975 5.30338C17.0336 5.63945 17.239 6.08422 17.2769 6.55797L17.3169 7.05097C17.384 7.88996 17.714 8.68641 18.2599 9.32697L18.5799 9.70397C18.8882 10.0658 19.0575 10.5256 19.0575 11.001C19.0575 11.4763 18.8882 11.9361 18.5799 12.298L18.2599 12.675C17.714 13.3155 17.384 14.112 17.3169 14.951L17.2769 15.444C17.239 15.9177 17.0336 16.3625 16.6975 16.6986C16.3614 17.0346 15.9167 17.24 15.4429 17.278L14.9499 17.318C14.1109 17.385 13.3145 17.715 12.6739 18.261L12.2969 18.581C11.9351 18.8892 11.4753 19.0585 10.9999 19.0585C10.5246 19.0585 10.0648 18.8892 9.70291 18.581L9.32591 18.261C8.68535 17.715 7.88889 17.385 7.04991 17.318L6.55691 17.278C6.08298 17.2403 5.63797 17.035 5.3017 16.6989C4.96542 16.3628 4.75988 15.9179 4.72191 15.444L4.68191 14.951C4.61514 14.1121 4.28551 13.3157 3.73991 12.675L3.41991 12.298C3.11165 11.9361 2.94234 11.4763 2.94234 11.001C2.94234 10.5256 3.11165 10.0658 3.41991 9.70397L3.73991 9.32697C4.28587 8.68641 4.61586 7.88996 4.68291 7.05097L4.72291 6.55797C4.76062 6.08404 4.96592 5.63903 5.30201 5.30276C5.6381 4.96649 6.083 4.76094 6.55691 4.72297L7.04991 4.68397C7.88889 4.61692 8.68535 4.28693 9.32591 3.74097L9.70291 3.41997ZM14.7069 8.70797C14.8024 8.61573 14.8786 8.50538 14.931 8.38338C14.9834 8.26137 15.011 8.13015 15.0122 7.99738C15.0133 7.8646 14.988 7.73292 14.9377 7.61002C14.8875 7.48712 14.8132 7.37547 14.7193 7.28158C14.6254 7.18769 14.5138 7.11343 14.3909 7.06315C14.268 7.01287 14.1363 6.98757 14.0035 6.98872C13.8707 6.98988 13.7395 7.01746 13.6175 7.06987C13.4955 7.12228 13.3852 7.19846 13.2929 7.29397L7.29291 13.294C7.1974 13.3862 7.12122 13.4966 7.06881 13.6186C7.0164 13.7406 6.98882 13.8718 6.98766 14.0046C6.98651 14.1374 7.01181 14.269 7.06209 14.3919C7.11237 14.5148 7.18662 14.6265 7.28052 14.7204C7.37441 14.8143 7.48606 14.8885 7.60896 14.9388C7.73185 14.9891 7.86353 15.0144 7.99631 15.0132C8.12909 15.0121 8.26031 14.9845 8.38232 14.9321C8.50432 14.8797 8.61466 14.8035 8.70691 14.708L14.7069 8.70797ZM9.99991 8.49997C9.99991 8.8978 9.84188 9.27933 9.56057 9.56063C9.27927 9.84194 8.89774 9.99997 8.49991 9.99997C8.10209 9.99997 7.72056 9.84194 7.43925 9.56063C7.15795 9.27933 6.99991 8.8978 6.99991 8.49997C6.99991 8.10215 7.15795 7.72062 7.43925 7.43931C7.72056 7.15801 8.10209 6.99997 8.49991 6.99997C8.89774 6.99997 9.27927 7.15801 9.56057 7.43931C9.84188 7.72062 9.99991 8.10215 9.99991 8.49997ZM13.4999 15C13.8977 15 14.2793 14.8419 14.5606 14.5606C14.8419 14.2793 14.9999 13.8978 14.9999 13.5C14.9999 13.1021 14.8419 12.7206 14.5606 12.4393C14.2793 12.158 13.8977 12 13.4999 12C13.1021 12 12.7206 12.158 12.4393 12.4393C12.1579 12.7206 11.9999 13.1021 11.9999 13.5C11.9999 13.8978 12.1579 14.2793 12.4393 14.5606C12.7206 14.8419 13.1021 15 13.4999 15Z" fill="#B61255"/>
</svg>
