<svg width="20" height="20" viewBox="0 0 20 20" fill="none" xmlns="http://www.w3.org/2000/svg">
<path d="M10 18.5C14.9705 18.5 19 14.339 19 11.5C19 8.661 14.9705 4.5 10 4.5C5.0295 4.5 1 8.664 1 11.5C1 14.336 5.0295 18.5 10 18.5Z" stroke="#B61255" stroke-width="1.5" stroke-linejoin="round"/>
<path d="M10 14.5C10.7956 14.5 11.5587 14.1839 12.1213 13.6213C12.6839 13.0587 13 12.2956 13 11.5C13 10.7044 12.6839 9.94129 12.1213 9.37868C11.5587 8.81607 10.7956 8.5 10 8.5C9.20435 8.5 8.44129 8.81607 7.87868 9.37868C7.31607 9.94129 7 10.7044 7 11.5C7 12.2956 7.31607 13.0587 7.87868 13.6213C8.44129 14.1839 9.20435 14.5 10 14.5Z" stroke="#B61255" stroke-width="1.5" stroke-linejoin="round"/>
<path d="M4.63202 3.633L5.92902 5.443M15.8125 3.855L14.515 5.665M10.0045 1.5V4.5" stroke="#B61255" stroke-width="1.5" stroke-linecap="round"/>
</svg>
