<svg width="16" height="18" viewBox="0 0 16 18" fill="none" xmlns="http://www.w3.org/2000/svg">
<path d="M3.83301 6.5C5.21372 6.5 6.33301 5.38071 6.33301 4C6.33301 2.61929 5.21372 1.5 3.83301 1.5C2.4523 1.5 1.33301 2.61929 1.33301 4C1.33301 5.38071 2.4523 6.5 3.83301 6.5ZM3.83301 6.5L3.83301 16.5M12.1663 11.5C13.5471 11.5 14.6663 12.6193 14.6663 14C14.6663 15.3807 13.5471 16.5 12.1663 16.5C10.7856 16.5 9.66634 15.3807 9.66634 14C9.66634 12.6193 10.7856 11.5 12.1663 11.5ZM12.1663 11.5V1.5" stroke="#B61255" stroke-width="1.5" stroke-linecap="round" stroke-linejoin="round"/>
</svg>
