<svg width="18" height="18" viewBox="0 0 18 18" fill="none" xmlns="http://www.w3.org/2000/svg">
<path d="M17.2196 2.935C17.7362 1.58667 16.4129 0.263333 15.0646 0.781667L1.73624 5.90833C0.226244 6.48833 0.346244 8.66333 1.91124 9.075L6.99458 10.4133C7.13712 10.4509 7.26714 10.5256 7.37137 10.6299C7.47561 10.7341 7.55033 10.8641 7.58791 11.0067L8.92458 16.09C9.33624 17.655 11.5112 17.7733 12.0912 16.2633L17.2196 2.935ZM15.6629 2.33667L10.5362 15.6667L9.19958 10.5833C9.08654 10.1553 8.86188 9.76498 8.54855 9.45224C8.23523 9.1395 7.84448 8.91557 7.41624 8.80333L2.33458 7.465L15.6629 2.33667Z" fill="#D3D3D3"/>
</svg>
