<svg width="18" height="18" viewBox="0 0 18 18" fill="none" xmlns="http://www.w3.org/2000/svg">
<path d="M15.6275 11.9883L13.2992 11.7225C13.0254 11.6903 12.7479 11.7206 12.4875 11.8111C12.2272 11.9016 11.9907 12.05 11.7959 12.245L10.1092 13.9317C7.50715 12.6079 5.39209 10.4929 4.06837 7.89082L5.7642 6.19499C6.15837 5.80082 6.35087 5.25082 6.2867 4.69166L6.02087 2.38166C5.96909 1.93441 5.75455 1.52185 5.41813 1.22262C5.08171 0.923391 4.64694 0.758422 4.1967 0.759158H2.61087C1.57504 0.759158 0.713371 1.62082 0.777537 2.65666C1.26337 10.485 7.5242 16.7367 15.3434 17.2225C16.3792 17.2867 17.2409 16.425 17.2409 15.3892V13.8033C17.25 12.8775 16.5534 12.0983 15.6275 11.9883Z" fill="#B61255"/>
</svg>
