<svg width="20" height="19" viewBox="0 0 20 19" fill="none" xmlns="http://www.w3.org/2000/svg">
<path fill-rule="evenodd" clip-rule="evenodd" d="M2.73303 1.043C3.95003 -0.167001 5.95403 0.0479993 6.97303 1.41L8.23503 3.094C9.06503 4.202 8.99103 5.75 8.00603 6.729L7.76803 6.967C7.74104 7.06691 7.7383 7.17182 7.76003 7.273C7.82303 7.681 8.16403 8.545 9.59203 9.965C11.02 11.385 11.89 11.725 12.304 11.789C12.4083 11.81 12.5161 11.8069 12.619 11.78L13.027 11.374C13.903 10.504 15.247 10.341 16.331 10.93L18.241 11.97C19.878 12.858 20.291 15.082 18.951 16.415L17.53 17.827C17.082 18.272 16.48 18.643 15.746 18.712C13.936 18.881 9.71903 18.665 5.28603 14.258C1.14903 10.144 0.355027 6.556 0.254027 4.788C0.204027 3.894 0.626027 3.138 1.16403 2.604L2.73303 1.043ZM5.77303 2.309C5.26603 1.632 4.32203 1.578 3.79003 2.107L2.22003 3.667C1.89003 3.995 1.73203 4.357 1.75203 4.703C1.83203 6.108 2.47203 9.345 6.34403 13.195C10.406 17.233 14.157 17.354 15.607 17.218C15.903 17.191 16.197 17.037 16.472 16.764L17.892 15.351C18.47 14.777 18.343 13.731 17.525 13.287L15.615 12.248C15.087 11.962 14.469 12.056 14.085 12.438L13.63 12.891L13.1 12.359C13.63 12.891 13.629 12.892 13.628 12.892L13.627 12.894L13.624 12.897L13.617 12.903L13.602 12.917C13.5598 12.9562 13.5143 12.9916 13.466 13.023C13.386 13.076 13.28 13.135 13.147 13.184C12.877 13.285 12.519 13.339 12.077 13.271C11.21 13.138 10.061 12.547 8.53403 11.029C7.00803 9.511 6.41203 8.369 6.27803 7.503C6.20903 7.061 6.26403 6.703 6.36603 6.433C6.42216 6.28107 6.50254 6.13923 6.60403 6.013L6.63603 5.978L6.65003 5.963L6.65603 5.957L6.65903 5.954L6.66103 5.952L6.94903 5.666C7.37703 5.239 7.43703 4.532 7.03403 3.993L5.77303 2.309Z" fill="#D3D3D3"/>
</svg>
