<svg width="14" height="18" viewBox="0 0 14 18" fill="none" xmlns="http://www.w3.org/2000/svg">
<path d="M7 2.25C5.60761 2.25 4.27226 2.80312 3.28769 3.78769C2.30312 4.77225 1.75 6.10761 1.75 7.5C1.75 9.6465 3.0865 11.7172 4.5535 13.3215C5.3036 14.1387 6.12207 14.8904 7 15.5685C7.131 15.468 7.28475 15.3455 7.46125 15.201C8.1661 14.6222 8.82948 13.9947 9.4465 13.323C10.9135 11.7172 12.25 9.64725 12.25 7.5C12.25 6.10761 11.6969 4.77225 10.7123 3.78769C9.72774 2.80312 8.39239 2.25 7 2.25ZM7 17.4105L6.57475 17.118L6.5725 17.1165L6.568 17.1127L6.553 17.1022L6.49675 17.0625L6.29425 16.9147C5.26815 16.1436 4.31491 15.28 3.4465 14.3348C1.9135 12.6562 0.25 10.227 0.25 7.49925C0.25 5.70904 0.961159 3.99215 2.22703 2.72628C3.4929 1.46041 5.20979 0.749249 7 0.749249C8.79021 0.749249 10.5071 1.46041 11.773 2.72628C13.0388 3.99215 13.75 5.70904 13.75 7.49925C13.75 10.227 12.0865 12.657 10.5535 14.3332C9.68533 15.2784 8.73234 16.1421 7.7065 16.9132C7.62104 16.9771 7.53478 17.0398 7.44775 17.1015L7.432 17.112L7.4275 17.1157L7.426 17.1165L7 17.4105ZM7 6C6.60218 6 6.22064 6.15803 5.93934 6.43934C5.65804 6.72064 5.5 7.10217 5.5 7.5C5.5 7.89782 5.65804 8.27935 5.93934 8.56066C6.22064 8.84196 6.60218 9 7 9C7.39782 9 7.77936 8.84196 8.06066 8.56066C8.34196 8.27935 8.5 7.89782 8.5 7.5C8.5 7.10217 8.34196 6.72064 8.06066 6.43934C7.77936 6.15803 7.39782 6 7 6ZM4 7.5C4 6.70435 4.31607 5.94129 4.87868 5.37868C5.44129 4.81607 6.20435 4.5 7 4.5C7.79565 4.5 8.55871 4.81607 9.12132 5.37868C9.68393 5.94129 10 6.70435 10 7.5C10 8.29565 9.68393 9.05871 9.12132 9.62132C8.55871 10.1839 7.79565 10.5 7 10.5C6.20435 10.5 5.44129 10.1839 4.87868 9.62132C4.31607 9.05871 4 8.29565 4 7.5Z" fill="#D3D3D3"/>
</svg>
