<svg width="17" height="17" viewBox="0 0 17 17" fill="none" xmlns="http://www.w3.org/2000/svg">
<path fill-rule="evenodd" clip-rule="evenodd" d="M7.75003 0.166667C6.62052 0.166763 5.50741 0.436971 4.50358 0.954745C3.49974 1.47252 2.63427 2.22285 1.97939 3.14313C1.32451 4.06341 0.899203 5.12696 0.738952 6.24504C0.5787 7.36312 0.688153 8.50331 1.05818 9.57049C1.4282 10.6377 2.04807 11.6009 2.86606 12.3798C3.68405 13.1587 4.67645 13.7306 5.76046 14.048C6.84446 14.3654 7.98865 14.4189 9.09754 14.2041C10.2064 13.9893 11.2479 13.5125 12.135 12.8133L15.1784 15.8567C15.3355 16.0085 15.546 16.0925 15.7645 16.0906C15.983 16.0887 16.192 16.001 16.3465 15.8465C16.501 15.692 16.5887 15.483 16.5906 15.2645C16.5925 15.046 16.5085 14.8355 16.3567 14.6783L13.3134 11.635C14.1367 10.5905 14.6493 9.33533 14.7926 8.01311C14.9359 6.69088 14.704 5.35502 14.1235 4.15841C13.5431 2.96181 12.6374 1.9528 11.5103 1.24686C10.3831 0.540922 9.08 0.166578 7.75003 0.166667ZM2.33336 7.25C2.33336 5.81341 2.90404 4.43566 3.91987 3.41984C4.93569 2.40402 6.31344 1.83333 7.75003 1.83333C9.18662 1.83333 10.5644 2.40402 11.5802 3.41984C12.596 4.43566 13.1667 5.81341 13.1667 7.25C13.1667 8.68659 12.596 10.0643 11.5802 11.0802C10.5644 12.096 9.18662 12.6667 7.75003 12.6667C6.31344 12.6667 4.93569 12.096 3.91987 11.0802C2.90404 10.0643 2.33336 8.68659 2.33336 7.25Z" fill="#A0A0A0"/>
</svg>
