<svg width="30" height="28" viewBox="0 0 30 28" fill="none" xmlns="http://www.w3.org/2000/svg">
<path d="M14.5245 0.963523C14.6741 0.502868 15.3259 0.50287 15.4755 0.963525L18.48 10.2102C18.5469 10.4162 18.7389 10.5557 18.9555 10.5557H28.6781C29.1624 10.5557 29.3638 11.1755 28.972 11.4602L21.1062 17.175C20.931 17.3023 20.8577 17.528 20.9246 17.734L23.929 26.9807C24.0787 27.4414 23.5515 27.8245 23.1596 27.5398L15.2939 21.825C15.1186 21.6977 14.8814 21.6977 14.7061 21.825L6.84038 27.5398C6.44853 27.8245 5.92129 27.4414 6.07096 26.9807L9.0754 17.734C9.14234 17.528 9.06901 17.3023 8.89377 17.175L1.02804 11.4602C0.636187 11.1755 0.837576 10.5557 1.32194 10.5557H11.0445C11.2611 10.5557 11.4531 10.4162 11.52 10.2102L14.5245 0.963523Z" fill="#B61255"/>
</svg>
