<svg width="26" height="16" viewBox="0 0 26 16" fill="none" xmlns="http://www.w3.org/2000/svg">
<path d="M15 6.54062V2.22862C15 1.25678 14.8239 1.06195 13.8567 1.06195L11.115 1.00012C10.261 1.00012 9.83404 1.00012 9.66137 1.27662C9.4887 1.55312 9.68004 1.93228 10.0615 2.68828C10.2739 3.10828 10.3882 3.41278 10.3882 3.88412V6.98745C10.3882 7.96745 10.3882 8.45862 10.0149 8.60445C9.64154 8.74912 9.33237 8.42012 8.7117 7.76212C7.19504 6.14745 6.40404 4.13145 5.88487 1.93345C5.77754 1.47845 5.72387 1.25095 5.56287 1.12495C5.40187 0.998951 5.17204 1.00012 4.7147 1.00012H2.14804C1.5857 1.00012 1.30454 1.00012 1.12837 1.19845C0.95337 1.39795 0.987204 1.65228 1.05487 2.15978C1.67087 6.74128 5.69937 14.2535 13.1415 14.9698C14.4599 15.0958 15 14.74 15 13.2956C15 12.4766 14.9825 11.1536 16.0127 10.9798C16.5529 10.8888 16.9157 11.0813 17.5189 11.5865C18.5642 12.4638 19.1125 13.5348 19.494 14.348C19.7472 14.887 19.935 15.0001 20.53 15.0001H22.9497C24.1724 15.0001 24.5049 14.7015 23.96 13.5535C23.3443 12.266 22.4725 11.1175 21.398 10.1783C20.656 9.54012 20.2862 9.22162 20.2664 8.98595C20.2442 8.75145 20.516 8.41895 21.0597 7.75395C22.1097 6.46828 23.54 4.45112 24.2074 2.31028C24.5387 1.24862 24.2272 1.00012 23.1527 1.00012H20.9792C19.9257 1.00012 19.9269 0.963951 19.6784 2.15862C19.2747 4.09645 17.954 5.95962 16.7127 7.22779C16.1235 7.82979 15.7677 8.19262 15.4002 8.04445C15.0327 7.89629 15 7.44595 15 6.54062Z" stroke="#B61255" stroke-width="1.8" stroke-linecap="round" stroke-linejoin="round"/>
</svg>
