<svg width="26" height="28" viewBox="0 0 26 28" fill="none" xmlns="http://www.w3.org/2000/svg">
<path d="M23 7.37V1C23 0.734784 22.8946 0.48043 22.7071 0.292893C22.5196 0.105357 22.2652 0 22 0H19V2H21V8.72C21 8.72 24 9.227 24 13V26H21V28H25C25.2652 28 25.5196 27.8946 25.7071 27.7071C25.8946 27.5196 26 27.2652 26 27V13C26 9.548 24.067 7.976 23 7.37ZM16 7.37V1C16 0.734784 15.8946 0.48043 15.7071 0.292893C15.5196 0.105357 15.2652 0 15 0H12V2H14V8.72C14 8.72 17 9.227 17 13V26H14V28H18C18.2652 28 18.5196 27.8946 18.7071 27.7071C18.8946 27.5196 19 27.2652 19 27V13C19 9.548 17.067 7.976 16 7.37ZM9 7.37V1C9 0.734784 8.89464 0.48043 8.70711 0.292893C8.51957 0.105357 8.26522 0 8 0H4C3.73478 0 3.48043 0.105357 3.29289 0.292893C3.10536 0.48043 3 0.734784 3 1V7.37C1.933 7.976 0 9.548 0 13V27C0 27.2652 0.105357 27.5196 0.292893 27.7071C0.48043 27.8946 0.734784 28 1 28H11C11.2652 28 11.5196 27.8946 11.7071 27.7071C11.8946 27.5196 12 27.2652 12 27V13C12 9.548 10.067 7.976 9 7.37ZM10 26H2V13C2 9.228 5 8.72 5 8.72V2H7V8.72C7 8.72 10 9.228 10 13V26Z" fill="#B61255"/>
</svg>
