<svg width="30" height="30" viewBox="0 0 30 30" fill="none" xmlns="http://www.w3.org/2000/svg">
<g clip-path="url(#clip0_2153_149)">
<path d="M15 30C23.2843 30 30 23.2843 30 15C30 6.71573 23.2843 0 15 0C6.71573 0 0 6.71573 0 15C0 23.2843 6.71573 30 15 30Z" fill="#F0F0F0"/>
<path d="M14.9999 0C9.05297 0 3.91453 3.46084 1.48828 8.47828H28.5114C26.0852 3.46084 20.9467 0 14.9999 0Z" fill="#D80027"/>
<path d="M14.9999 30C20.9467 30 26.0852 26.5392 28.5115 21.5217H1.48828C3.91453 26.5392 9.05297 30 14.9999 30Z" fill="#D80027"/>
<path d="M18.913 17.6087L15 10.4348L11.0869 17.6087H14.0217V19.5652H15.9783V17.6087H18.913Z" fill="#6DA544"/>
</g>
<defs>
<clipPath id="clip0_2153_149">
<rect width="30" height="30" fill="white"/>
</clipPath>
</defs>
</svg>
