<svg width="30" height="30" viewBox="0 0 30 30" fill="none" xmlns="http://www.w3.org/2000/svg">
<path d="M7.24176 26.9795C4.60469 25.4433 2.51911 23.1018 1.2857 20.2923C1.75315 21.3364 2.34025 22.3215 3.035 23.2275C2.03728 21.9335 1.30633 20.4509 0.885254 18.8673C1.04633 19.1796 1.18714 19.5022 1.30677 19.8329C1.39792 20.1064 1.54111 20.3593 1.72829 20.5773C2.59302 22.4459 3.82282 24.1189 5.3439 25.4961C6.86498 26.8732 8.64602 27.9262 10.5802 28.5917C8.96155 28.3875 8.1944 27.5538 7.24176 26.9795Z" fill="#B61255"/>
<path d="M0.319824 14.3326L0.387431 15.545C0.353629 15.1196 0.319824 14.7027 0.319824 14.3326Z" fill="#B61255"/>
<path d="M27.7188 17.5528C27.8117 17.1318 27.8806 16.7057 27.9253 16.2766C27.9006 16.7081 27.8314 17.1358 27.7188 17.5528Z" fill="#B61255"/>
<path d="M12.418 28.1578L13.1303 28.2089C14.9494 28.4546 16.7984 28.3449 18.5764 27.8856C16.6289 28.4003 14.4033 28.6428 12.418 28.1578Z" fill="#B61255"/>
<path d="M10.6052 27.4176C8.90154 26.8835 7.34927 25.9456 6.07812 24.6824C7.36944 25.9191 8.91521 26.853 10.6052 27.4176Z" fill="#B61255"/>
<path d="M23.3815 6.22039C23.3815 6.24166 23.3309 6.22039 23.293 6.22039C23.2609 6.19328 23.2254 6.1704 23.1876 6.15232C22.9853 5.90955 22.7699 5.67809 22.5427 5.45894C22.3275 5.22714 22.095 5.01239 21.8472 4.8166C21.9821 4.90168 22.1296 4.94847 22.2687 5.04631C22.4543 5.23412 22.6302 5.43147 22.7956 5.6376C22.9305 5.79074 23.0822 5.94814 23.3815 6.22039Z" fill="#B61255"/>
<path d="M27.6139 18.0293V18.076C27.5884 18.2201 27.5531 18.3623 27.5083 18.5014L27.4829 18.5482C27.5378 18.3738 27.5716 18.2079 27.6139 18.0293Z" fill="#B61255"/>
<path d="M23.9251 6.83721C23.887 6.87895 23.8659 6.93362 23.8661 6.99035C23.668 6.69257 23.4445 6.43734 23.2085 6.13956L23.3097 6.20338C23.474 6.36928 23.6932 6.66705 23.9251 6.83721Z" fill="#B61255"/>
<path d="M26.1554 14.3879C26.1622 14.5689 26.1949 14.748 26.2524 14.9196C26.1849 15.5024 26.0079 16.0597 25.8645 16.719C25.8645 16.8254 25.8098 17.0381 25.8055 17.255C25.7334 17.3706 25.6673 17.4899 25.6074 17.6124C26.0526 16.1499 26.2157 14.6149 26.088 13.0905C26.1273 13.5102 26.1498 13.9427 26.1554 14.3879Z" fill="#B61255"/>
<path d="M1.97272 14.0008C1.98745 12.829 2.18226 11.6666 2.5502 10.5551C2.9353 9.46641 3.38574 8.40239 3.89905 7.36895C3.10357 8.47883 2.49147 9.7114 2.08652 11.0188C1.665 12.2269 1.49218 13.2351 1.27299 13.418C1.15918 13.5116 1.11281 13.3244 1.1086 12.9586C1.15509 12.4475 1.23536 11.9402 1.34887 11.4399C1.69337 10.1953 2.17256 8.99271 2.77781 7.85389L2.45324 8.31756C2.62266 8.10104 2.76428 7.86379 2.87476 7.61143C2.52912 8.03682 1.97271 9.01521 1.75774 9.27469C1.78725 9.10454 1.80832 8.92589 1.84625 8.75573C1.60756 9.13039 1.39217 9.51966 1.20133 9.9213C0.999002 10.3765 0.834611 10.8954 0.649142 11.4144C0.463674 11.9334 0.375158 12.4736 0.269778 12.9756C0.164398 13.4776 0.0969493 13.9412 0 14.3326C0.259914 12.3237 0.846687 10.3718 1.73666 8.5558C2.71619 6.58902 4.07805 4.84138 5.74108 3.41706C7.49494 1.95284 9.55638 0.911203 11.7688 0.371259C13.972 -0.145799 16.2659 -0.122458 18.4583 0.439323C20.7688 0.988539 22.926 2.05888 24.768 3.56998C26.6099 5.08107 28.0887 6.99364 29.0932 9.1641C29.3478 9.7803 29.5427 10.42 29.6749 11.0741C29.8373 11.8812 29.929 12.7011 29.9489 13.5244C30.053 14.8492 29.9979 16.1818 29.7845 17.4933C29.6659 18.1491 29.5125 18.798 29.3251 19.4373L29.03 20.3944L28.6548 21.3218C26.2901 26.5328 20.8525 29.9445 14.8375 29.9998C14.3304 30.0055 13.8273 29.9086 13.3579 29.7148C13.1809 29.5744 13.5181 29.485 14.9471 29.4595C17.3173 29.2843 19.6268 28.6212 21.7335 27.5112C21.5438 27.7452 20.5027 28.2046 20.0264 28.4471C21.6067 27.9285 23.0735 27.1082 24.3469 26.0309C23.4498 26.7801 22.4729 27.4264 21.4342 27.9579C24.2291 26.5534 26.5139 24.2953 27.9636 21.5047C28.4525 20.471 29.3293 19.667 29.422 17.9442C28.8376 19.9777 27.8539 21.8718 26.5295 23.5139C25.205 25.156 23.5669 26.5125 21.7124 27.5027C20.1438 28.365 18.4274 28.9193 16.6542 29.1362C17.2064 29.0299 17.767 28.9405 18.2433 28.8172C15.7073 29.332 13.085 29.2123 10.6054 28.4684C14.2412 29.3453 18.0678 28.8837 21.3963 27.1667C23.0464 26.312 24.5113 25.1341 25.7055 23.7019C26.8996 22.2696 27.7991 20.6116 28.3514 18.8247C27.9252 19.8446 27.441 20.8389 26.9013 21.8025C26.4027 22.7191 25.7361 23.5318 24.9371 24.1974C27.2315 21.7987 28.6418 18.6788 28.9331 15.3578C28.9461 15.6044 28.9461 15.8514 28.9331 16.098C29.3546 14.0221 29.0173 11.7207 28.3682 9.71711L28.1406 9.20664L28.3218 9.74263C28.8758 11.5613 29.072 13.4717 28.8993 15.3663C28.9199 14.4208 28.8875 13.475 28.8024 12.5332C28.8024 12.8267 28.8024 13.184 28.8024 13.5711C28.8096 13.9788 28.7928 14.3864 28.7518 14.792C28.7384 15.3384 28.6848 15.8829 28.5916 16.4213C28.5453 16.6893 28.5115 16.9615 28.4567 17.2253L28.246 18.0122C28.6619 16.4542 28.7509 14.8256 28.5073 13.2308C28.6163 15.4923 28.2021 17.7482 27.2976 19.8201C28.5115 16.7389 28.7052 13.344 27.8497 10.1425C27.8798 10.2174 27.9051 10.2941 27.9256 10.3722C27.885 10.2187 27.8344 10.068 27.7739 9.9213C27.6306 9.53845 27.521 9.13858 27.3524 8.76423C27.1838 8.38989 27.0109 8.01129 26.817 7.64545C26.6231 7.27962 26.4166 7.02012 26.21 6.72235C26.0035 6.42457 25.7379 6.1651 25.5019 5.8971L25.2827 5.60782C25.4471 5.76947 25.5609 5.82478 25.2827 5.46319C24.1404 3.90201 22.3742 2.74069 20.4732 1.67296C20.1857 1.50523 19.8802 1.37108 19.5627 1.27309C19.1918 1.13039 18.8097 1.0194 18.4204 0.941281C18.2821 0.875618 18.1305 0.843565 17.9778 0.847695C17.8007 0.813664 17.6237 0.762617 17.4424 0.741347C17.0209 0.681792 16.5615 0.609487 16.1315 0.579709L17.4424 0.741347C17.6068 0.762617 17.767 0.813664 17.9272 0.847695C17.7662 0.860225 17.6043 0.848764 17.4467 0.813669C20.5049 1.49915 23.2526 3.18625 25.2616 5.61208L24.8106 5.2505C25.0496 5.452 25.2736 5.67096 25.4808 5.9056C25.8032 6.31099 26.0989 6.7373 26.366 7.18178L26.7875 7.83688L27.1374 8.52602C26.9994 8.27998 26.8444 8.04401 26.6737 7.81986C28.0518 10.4251 28.5939 13.398 28.2249 16.3277C28.0122 17.6864 27.5853 19.0019 26.9603 20.2243C26.6576 20.8307 26.3154 21.4161 25.9361 21.9769C25.548 22.5227 25.1256 23.0427 24.6715 23.5338C25.7865 22.4877 26.6798 21.2244 27.2976 19.8201C26.4814 21.7569 25.2354 23.4786 23.6556 24.8525C22.0741 26.2225 20.1816 27.1767 18.1464 27.6303C18.5225 27.4671 18.8885 27.281 19.2423 27.0731C19.5524 26.9219 19.8369 26.7224 20.0854 26.4818C20.0306 26.4392 18.8208 26.8221 19.4952 26.5201C21.8726 25.2907 23.4196 24.0698 23.7737 22.9383C23.7737 22.8745 23.6388 22.9383 23.4407 23.0574L22.6819 23.436C22.1719 23.7082 21.6787 23.8103 22.0075 23.5211C22.8616 22.7574 23.614 21.8851 24.2458 20.9262C24.486 20.6029 24.6926 20.2328 24.9244 19.8669C24.9608 19.785 24.9822 19.6971 24.9876 19.6075C25.5368 18.4832 25.9189 17.2835 26.1215 16.0469C26.1902 15.759 26.2353 15.466 26.2564 15.1706C26.2863 15.0361 26.333 14.9061 26.3955 14.7835C26.3618 14.5963 26.3618 14.4049 26.3281 14.222C26.3281 13.8264 26.3281 13.4308 26.2943 13.0352C26.2606 12.6396 26.2058 12.2524 26.1384 11.8696C26.0709 11.4867 26.0456 10.9933 25.9276 10.5934C25.8981 10.5934 25.877 10.6913 25.818 10.6274C25.5193 9.69833 25.1088 8.80972 24.5956 7.98151C24.4397 7.61142 24.2415 7.30514 24.1277 6.97758C23.7062 6.64153 23.0866 6.01195 22.37 5.38237C22.0117 5.07183 21.6155 4.76981 21.2235 4.4848C20.8455 4.22559 20.4481 3.9966 20.0348 3.79991C19.6588 3.59808 19.2685 3.42461 18.8672 3.28093L18.2644 3.05123L17.6364 2.88532C17.5057 2.82151 17.3792 2.75345 17.2654 2.68113C17.0462 2.68113 16.8186 2.68113 16.709 2.68113C16.0346 2.50672 15.4444 2.44292 14.8543 2.34082C14.6817 2.41065 14.5023 2.46198 14.319 2.49397L13.6446 2.51949C13.4254 2.54076 13.2231 2.58755 12.9996 2.62158C12.492 2.68263 11.9892 2.77928 11.4948 2.91085C9.80141 3.34091 8.21987 4.13459 6.85812 5.23774C6.80347 5.24224 6.74918 5.2255 6.70636 5.19095C6.55462 5.42917 6.2174 5.61633 6.08673 5.84604C6.08673 5.79925 6.11202 5.76522 6.08673 5.75246C5.61042 6.41181 5.39966 6.42033 4.94442 6.9946C4.84747 7.12647 4.79689 7.27962 4.71259 7.42C4.66201 7.48207 4.61554 7.54743 4.57348 7.61567C3.97811 8.24589 3.53397 9.00556 3.27521 9.83621C3.07606 10.2574 2.90701 10.6924 2.76938 11.1379L2.5544 11.8058L2.40688 12.4949C2.20455 13.1968 2.10339 13.4776 1.97272 14.0008Z" fill="#B61255"/>
<path d="M21.6703 4.65921C21.0288 4.12965 20.3353 3.66781 19.6006 3.28093C20.4057 3.65528 21.1518 3.99985 21.6703 4.65921Z" fill="#B61255"/>
<path d="M21.396 23.7678C21.101 23.8996 20.7511 24.006 20.4097 24.1719C21.2807 23.6703 22.0817 23.0537 22.7913 22.3385C23.4969 21.6066 24.11 20.7893 24.6164 19.9052C24.4062 20.2983 24.1651 20.6739 23.8956 21.0283L23.4741 21.594L22.9978 22.1088C22.3908 22.8021 21.7459 23.3424 21.396 23.7678Z" fill="#B61255"/>
<path d="M23.2938 6.21188L23.1924 6.14808C23.2286 6.16514 23.2627 6.18656 23.2938 6.21188Z" fill="#B61255"/>
<path d="M18.4456 27.273L18.2222 27.3283C18.7768 27.1582 19.3215 26.9566 19.8535 26.7243C19.399 26.9438 18.9283 27.1273 18.4456 27.273Z" fill="#B61255"/>
<path d="M12.2745 27.4432C11.1069 27.2398 9.97233 26.8763 8.90235 26.3627C7.59419 25.6833 6.42898 24.7544 5.47119 23.6274C6.38845 24.5667 7.42617 25.3779 8.55671 26.0394C9.72272 26.6851 10.9748 27.1579 12.2745 27.4432Z" fill="#B61255"/>
<path d="M17.8642 25.3587C17.4468 25.437 17.024 25.4825 16.5996 25.4949C17.0123 25.4419 17.4208 25.3594 17.822 25.2481C17.7714 25.2992 17.8473 25.329 17.8642 25.3587Z" fill="#B61255"/>
<path d="M22.6906 25.0057L22.4082 25.2226L23.0742 24.6016L22.6906 25.0057Z" fill="#B61255"/>
<path d="M13.4507 25.4821C13.75 25.5459 14.0577 25.5417 14.3569 25.5757C14.1748 25.5859 13.9933 25.6057 13.8132 25.6353C13.695 25.5781 13.574 25.527 13.4507 25.4821Z" fill="#B61255"/>
<path d="M9.01614 23.9635C8.8391 23.8529 8.66207 23.7465 8.49346 23.6316L8.02979 23.2573C8.2279 23.3934 8.41758 23.5508 8.62413 23.6827L9.25641 24.0528C9.1714 24.0388 9.08984 24.0085 9.01614 23.9635Z" fill="#B61255"/>
</svg>
