<svg width="24" height="24" viewBox="0 0 24 24" fill="none" xmlns="http://www.w3.org/2000/svg">
<path d="M21.6401 16.3465L18.2534 15.9599C17.8552 15.9131 17.4515 15.9572 17.0728 16.0888C16.6941 16.2204 16.3501 16.4362 16.0667 16.7199L13.6134 19.1732C9.82858 17.2478 6.75214 14.1713 4.82672 10.3865L7.29339 7.91985C7.86672 7.34652 8.14672 6.54652 8.05339 5.73319L7.66672 2.37319C7.59141 1.72264 7.27934 1.12255 6.79 0.687311C6.30067 0.252071 5.66828 0.0121168 5.01339 0.0131872H2.70672C1.20005 0.0131872 -0.0532791 1.26652 0.0400542 2.77319C0.746721 14.1599 9.85339 23.2532 21.2267 23.9599C22.7334 24.0532 23.9867 22.7999 23.9867 21.2932V18.9865C24.0001 17.6399 22.9867 16.5065 21.6401 16.3465Z" fill="#B61255"/>
</svg>
