<svg width="25" height="21" viewBox="0 0 25 21" fill="none" xmlns="http://www.w3.org/2000/svg">
<path d="M25 21H14.7059V10.4216C14.7059 7.1306 15.6089 4.5709 17.4149 2.74254C19.2208 0.91418 21.7492 0 25 0V5.25C23.3488 5.56343 22.162 6.0597 21.4396 6.7388C20.7688 7.41791 20.4334 8.35821 20.4334 9.5597V10.9701H25V21ZM10.2941 21H0V10.4216C0 7.1306 0.902993 4.5709 2.70898 2.74254C4.51496 0.91418 7.04334 0 10.2941 0V5.25C8.64293 5.56343 7.45614 6.0597 6.73375 6.7388C6.06295 7.41791 5.72755 8.35821 5.72755 9.5597V10.9701H10.2941V21Z" fill="#B61255"/>
</svg>
